<?xml version="1.0" encoding="utf-8"?>
<!-- Generator: Adobe Illustrator 16.0.4, SVG Export Plug-In . SVG Version: 6.00 Build 0)  -->
<!DOCTYPE svg PUBLIC "-//W3C//DTD SVG 1.1//EN" "http://www.w3.org/Graphics/SVG/1.1/DTD/svg11.dtd">
<svg version="1.1" id="Layer_1" xmlns="http://www.w3.org/2000/svg" xmlns:xlink="http://www.w3.org/1999/xlink" x="0px" y="0px"
	 width="960px" height="560px" viewBox="0 0 960 560" enable-background="new 0 0 960 560" xml:space="preserve">
<symbol  id="Clock" viewBox="-32 -32 64 64">
	<path d="M0,32c-17.673,0-32-14.327-32-32s14.327-32,32-32S32-17.673,32,0S17.673,32,0,32z M0-25c-13.785,0-25,11.215-25,25
		s11.215,25,25,25S25,13.785,25,0S13.785-25,0-25z"/>
	<path d="M15.456,0.759H1.485v16.398c0,1.38-1.121,2.5-2.502,2.5c-1.38,0-2.499-1.119-2.499-2.5V-3.891
		c0-1.38,1.119-2.501,2.499-2.501c0.318,0,0.62,0.065,0.899,0.174C-0.04-6.223,0.032-6.241,0.11-6.241h15.346
		c1.933,0,3.499,1.567,3.499,3.501C18.955-0.808,17.389,0.759,15.456,0.759z"/>
</symbol>
<use xlink:href="#Clock"  width="64" height="64" x="-32" y="-32" transform="matrix(1 0 0 -1 358 150)" overflow="visible"/>
</svg>
